ZiroliWes-Regular-Narrow3.ufo
<glyph name="parenleft" format="1">
  <advance width="373"/>
  <unicode hex="0028"/>
  <outline>
    <contour>
      <point x="321" y="790" type="curve"/>
      <point x="336" y="768" type="line"/>
      <point x="189" y="685"/>
      <point x="144" y="535"/>
      <point x="144" y="353" type="curve" smooth="yes"/>
      <point x="144" y="203"/>
      <point x="191" y="26"/>
      <point x="344" y="-93" type="curve"/>
      <point x="321" y="-112" type="line"/>
      <point x="212" y="-34"/>
      <point x="59" y="124"/>
      <point x="59" y="324" type="curve" smooth="yes"/>
      <point x="59" y="585"/>
      <point x="200" y="706"/>
    </contour>
  </outline>
</glyph>
<glyph name="plus" format="1">
  <advance width="499"/>
  <unicode hex="002B"/>
  <outline>
    <contour>
      <point x="53" y="412" type="line"/>
      <point x="55" y="364"/>
      <point x="47" y="307"/>
      <point x="15" y="242" type="curve"/>
      <point x="28" y="241" type="line"/>
      <point x="48" y="288"/>
      <point x="87" y="296"/>
      <point x="239" y="296" type="curve" smooth="yes"/>
      <point x="300" y="296" type="line" smooth="yes"/>
      <point x="437" y="296"/>
      <point x="446" y="279"/>
      <point x="446" y="238" type="curve"/>
      <point x="457" y="238" type="line"/>
      <point x="453" y="289"/>
      <point x="456" y="359"/>
      <point x="475" y="412" type="curve"/>
      <point x="465" y="412" type="line"/>
      <point x="445" y="358"/>
      <point x="410" y="355"/>
      <point x="256" y="355" type="curve" smooth="yes"/>
      <point x="203" y="355" type="line" smooth="yes"/>
      <point x="74" y="355"/>
      <point x="63" y="362"/>
      <point x="63" y="412" type="curve"/>
    </contour>
    <contour>
      <point x="356" y="95" type="curve"/>
      <point x="356" y="106" type="line"/>
      <point x="295" y="110"/>
      <point x="288" y="125"/>
      <point x="288" y="274" type="curve" smooth="yes"/>
      <point x="288" y="378" type="line" smooth="yes"/>
      <point x="288" y="529"/>
      <point x="293" y="543"/>
      <point x="349" y="550" type="curve"/>
      <point x="349" y="560" type="line"/>
      <point x="322" y="556"/>
      <point x="275" y="554"/>
      <point x="254" y="554" type="curve" smooth="yes"/>
      <point x="233" y="554"/>
      <point x="188" y="556"/>
      <point x="159" y="560" type="curve"/>
      <point x="159" y="550" type="line"/>
      <point x="216" y="543"/>
      <point x="220" y="529"/>
      <point x="220" y="378" type="curve" smooth="yes"/>
      <point x="220" y="274" type="line" smooth="yes"/>
      <point x="220" y="125"/>
      <point x="215" y="110"/>
      <point x="152" y="105" type="curve"/>
      <point x="152" y="95" type="line"/>
      <point x="188" y="98"/>
      <point x="228" y="101"/>
      <point x="254" y="101" type="curve" smooth="yes"/>
      <point x="280" y="101"/>
      <point x="322" y="98"/>
    </contour>
  </outline>
</glyph>
<glyph name="comma" format="1">
  <advance width="225"/>
  <unicode hex="002C"/>
  <outline>
    <contour>
      <point x="27" y="61" type="curve"/>
      <point x="17" y="73" type="line"/>
      <point x="41" y="98"/>
      <point x="87" y="130"/>
      <point x="133" y="130" type="curve" smooth="yes"/>
      <point x="181" y="130"/>
      <point x="191" y="90"/>
      <point x="191" y="59" type="curve" smooth="yes"/>
      <point x="191" y="5"/>
      <point x="147" y="-96"/>
      <point x="53" y="-166" type="curve"/>
      <point x="45" y="-151" type="line"/>
      <point x="102" y="-105"/>
      <point x="117" y="-50"/>
      <point x="117" y="-3" type="curve" smooth="yes"/>
      <point x="117" y="45"/>
      <point x="90" y="70"/>
      <point x="56" y="70" type="curve" smooth="yes"/>
      <point x="44" y="70"/>
      <point x="33" y="67"/>
    </contour>
  </outline>
</glyph>
<glyph name="three" format="1">
  <advance width="568"/>
  <unicode hex="0033"/>
  <outline>
    <contour>
      <point x="283" y="369" type="curve"/>
      <point x="176" y="349" type="line"/>
      <point x="185" y="340" type="line"/>
      <point x="203" y="346"/>
      <point x="221" y="348"/>
      <point x="241" y="348" type="curve" smooth="yes"/>
      <point x="356" y="348"/>
      <point x="427" y="293"/>
      <point x="427" y="198" type="curve" smooth="yes"/>
      <point x="427" y="151"/>
      <point x="416" y="114"/>
      <point x="392" y="86" type="curve" smooth="yes"/>
      <point x="363" y="52"/>
      <point x="322" y="35"/>
      <point x="275" y="36" type="curve" smooth="yes"/>
      <point x="181" y="37"/>
      <point x="100" y="104"/>
      <point x="100" y="190" type="curve" smooth="yes"/>
      <point x="100" y="204"/>
      <point x="102" y="217"/>
      <point x="110" y="227" type="curve"/>
      <point x="102" y="235" type="line"/>
      <point x="84" y="215"/>
      <point x="62" y="172"/>
      <point x="62" y="129" type="curve" smooth="yes"/>
      <point x="62" y="44"/>
      <point x="134" y="-18"/>
      <point x="270" y="-18" type="curve" smooth="yes"/>
      <point x="431" y="-18"/>
      <point x="541" y="80"/>
      <point x="541" y="215" type="curve" smooth="yes"/>
      <point x="541" y="327"/>
      <point x="470" y="387"/>
      <point x="381" y="387" type="curve" smooth="yes"/>
      <point x="347" y="387"/>
      <point x="311" y="381"/>
    </contour>
    <contour>
      <point x="396" y="636" type="line"/>
      <point x="352" y="564"/>
      <point x="256" y="430"/>
      <point x="176" y="349" type="curve"/>
      <point x="311" y="363" type="line"/>
      <point x="349" y="418"/>
      <point x="442" y="543"/>
      <point x="546" y="666" type="curve"/>
      <point x="544" y="680" type="line"/>
      <point x="520.997632897" y="675.618596742"/>
      <point x="454.753488372" y="666.0"/>
      <point x="310" y="666" type="curve"/>
      <point x="310" y="639" type="line"/>
    </contour>
    <contour>
      <point x="454" y="603" type="curve"/>
      <point x="454" y="620"/>
      <point x="468" y="652"/>
      <point x="468" y="666" type="curve"/>
      <point x="310" y="666" type="line" smooth="yes"/>
      <point x="241" y="666"/>
      <point x="177" y="672"/>
      <point x="138" y="682" type="curve" smooth="yes"/>
      <point x="118" y="687"/>
      <point x="107" y="694"/>
      <point x="105" y="704" type="curve"/>
      <point x="93" y="702" type="line"/>
      <point x="93" y="666"/>
      <point x="81" y="572"/>
      <point x="56" y="497" type="curve"/>
      <point x="71" y="495" type="line"/>
      <point x="93" y="600"/>
      <point x="124" y="612"/>
      <point x="283" y="612" type="curve" smooth="yes"/>
      <point x="333" y="612"/>
      <point x="392" y="609"/>
    </contour>
  </outline>
</glyph>
<glyph name="nine" format="1">
  <advance width="605"/>
  <unicode hex="0039"/>
  <outline>
    <contour>
      <point x="428" y="549" type="line"/>
      <point x="439" y="524"/>
      <point x="445" y="499"/>
      <point x="446" y="472" type="curve" smooth="yes"/>
      <point x="447.999953667" y="398.001714323"/>
      <point x="414.064516129" y="316.0"/>
      <point x="326" y="316" type="curve" smooth="yes"/>
      <point x="238" y="317"/>
      <point x="176" y="385"/>
      <point x="176" y="484" type="curve" smooth="yes"/>
      <point x="176" y="574"/>
      <point x="226" y="633"/>
      <point x="309" y="633" type="curve" smooth="yes"/>
      <point x="383.973684211" y="633.0"/>
      <point x="454.000024835" y="567.998609213"/>
      <point x="457" y="400" type="curve"/>
      <point x="457" y="400" type="line"/>
      <point x="461" y="369"/>
      <point x="463" y="339"/>
      <point x="463" y="330" type="curve" smooth="yes"/>
      <point x="465.013496407" y="167.913539205"/>
      <point x="405.123076923" y="32.0"/>
      <point x="265" y="32" type="curve" smooth="yes"/>
      <point x="217.777777778" y="32.0"/>
      <point x="158.554111902" y="48.520202781"/>
      <point x="129" y="83" type="curve" smooth="yes"/>
      <point x="107.389769945" y="107.851764563"/>
      <point x="87.9140850682" y="144.645600906"/>
      <point x="96" y="178" type="curve"/>
      <point x="88" y="178" type="line"/>
      <point x="77" y="161"/>
      <point x="60" y="129"/>
      <point x="60" y="97" type="curve"/>
      <point x="60.0" y="20.5725806452"/>
      <point x="135.632183908" y="-20.0"/>
      <point x="248" y="-20" type="curve" smooth="yes"/>
      <point x="440.699115044" y="-20.0"/>
      <point x="573.0" y="133.786632391"/>
      <point x="573" y="371" type="curve" smooth="yes"/>
      <point x="573" y="551"/>
      <point x="480" y="691"/>
      <point x="314" y="690" type="curve" smooth="yes"/>
      <point x="163.240760612" y="689.008162899"/>
      <point x="71.0" y="574.0"/>
      <point x="71" y="459" type="curve" smooth="yes"/>
      <point x="71.0" y="320.0"/>
      <point x="175.95412844" y="246.0"/>
      <point x="291" y="246" type="curve" smooth="yes"/>
      <point x="404.557894737" y="246.0"/>
      <point x="485.999063133" y="339.013220229"/>
      <point x="477" y="466" type="curve"/>
    </contour>
  </outline>
</glyph>
<glyph name="greater" format="1">
  <advance width="552"/>
  <unicode hex="003E"/>
  <outline>
    <contour>
      <point x="134" y="508" type="line"/>
      <point x="123" y="490"/>
      <point x="90" y="466"/>
      <point x="68" y="455" type="curve"/>
      <point x="77" y="446" type="line"/>
      <point x="88" y="457"/>
      <point x="101" y="458"/>
      <point x="150" y="436" type="curve" smooth="yes"/>
      <point x="253" y="389"/>
      <point x="391" y="318"/>
      <point x="482" y="260" type="curve"/>
      <point x="547" y="289" type="line"/>
      <point x="547" y="295" type="line"/>
      <point x="425" y="351"/>
      <point x="285" y="422"/>
      <point x="142" y="508" type="curve"/>
    </contour>
    <contour>
      <point x="163" y="61" type="curve"/>
      <point x="283" y="136"/>
      <point x="403" y="209"/>
      <point x="547" y="286" type="curve"/>
      <point x="547" y="293" type="line"/>
      <point x="487" y="308" type="line"/>
      <point x="443" y="276"/>
      <point x="388" y="239"/>
      <point x="346" y="216" type="curve" smooth="yes"/>
      <point x="256.740983436" y="167.860305673"/>
      <point x="153.019986978" y="115.678772055"/>
      <point x="60" y="91" type="curve"/>
      <point x="62" y="83" type="line"/>
      <point x="80.8756518541" y="84.797681129"/>
      <point x="120" y="74"/>
    </contour>
  </outline>
</glyph>
<glyph name="N" format="1">
  <advance width="803"/>
  <unicode hex="004E"/>
  <outline>
    <contour>
      <point x="643" y="-24" type="curve"/>
      <point x="657" y="-24" type="line"/>
      <point x="656" y="15"/>
      <point x="656" y="99"/>
      <point x="656" y="248" type="curve"/>
      <point x="650" y="254"/>
      <point x="621" y="253"/>
      <point x="616" y="247" type="curve"/>
      <point x="616" y="195"/>
      <point x="619" y="176"/>
      <point x="613" y="184" type="curve" smooth="yes"/>
      <point x="534" y="275"/>
      <point x="472" y="358"/>
      <point x="419" y="426" type="curve" smooth="yes"/>
      <point x="315" y="555"/>
      <point x="258" y="637"/>
      <point x="247" y="672" type="curve"/>
      <point x="232" y="667"/>
      <point x="208" y="666"/>
      <point x="187" y="666" type="curve"/>
      <point x="169" y="606" type="line"/>
      <point x="179" y="593"/>
      <point x="189" y="553"/>
      <point x="201" y="538" type="curve" smooth="yes"/>
      <point x="298" y="419"/>
      <point x="435" y="248"/>
      <point x="545" y="106" type="curve" smooth="yes"/>
      <point x="582" y="61"/>
      <point x="627" y="4"/>
    </contour>
    <contour>
      <point x="656" y="71" type="line"/>
      <point x="658" y="308" type="line" smooth="yes"/>
      <point x="661" y="639"/>
      <point x="671" y="663"/>
      <point x="749" y="666" type="curve"/>
      <point x="749" y="680" type="line"/>
      <point x="722" y="676"/>
      <point x="672" y="672"/>
      <point x="623" y="672" type="curve" smooth="yes"/>
      <point x="592" y="672"/>
      <point x="522" y="676"/>
      <point x="492" y="680" type="curve"/>
      <point x="492" y="666" type="line"/>
      <point x="581" y="658"/>
      <point x="597" y="631"/>
      <point x="597" y="403" type="curve" smooth="yes"/>
      <point x="597" y="308"/>
      <point x="592" y="173"/>
      <point x="585" y="91" type="curve"/>
    </contour>
    <contour>
      <point x="313" y="-4" type="curve"/>
      <point x="313" y="12" type="line"/>
      <point x="219" y="16"/>
      <point x="214" y="56"/>
      <point x="214" y="265" type="curve" smooth="yes"/>
      <point x="214" y="313"/>
      <point x="217" y="486"/>
      <point x="221" y="588" type="curve"/>
      <point x="206" y="666" type="line"/>
      <point x="187" y="666" type="line" smooth="yes"/>
      <point x="137" y="666"/>
      <point x="71" y="675"/>
      <point x="32" y="680" type="curve"/>
      <point x="32" y="666" type="line"/>
      <point x="134" y="658"/>
      <point x="151" y="622"/>
      <point x="151" y="400" type="curve" smooth="yes"/>
      <point x="151" y="287" type="line" smooth="yes"/>
      <point x="151" y="56"/>
      <point x="143" y="17"/>
      <point x="47" y="12" type="curve"/>
      <point x="47" y="-4" type="line"/>
      <point x="83" y="0"/>
      <point x="143" y="4"/>
      <point x="184" y="4" type="curve" smooth="yes"/>
      <point x="225" y="4"/>
      <point x="277" y="0"/>
    </contour>
  </outline>
</glyph>
<glyph name="R" format="1">
  <advance width="649"/>
  <unicode hex="0052"/>
  <outline>
    <contour>
      <point x="218" y="612" type="line"/>
      <point x="241" y="620"/>
      <point x="275" y="624"/>
      <point x="311" y="624" type="curve" smooth="yes"/>
      <point x="380" y="624"/>
      <point x="465" y="585"/>
      <point x="465" y="473" type="curve" smooth="yes"/>
      <point x="465" y="418"/>
      <point x="439" y="373"/>
      <point x="404" y="350" type="curve" smooth="yes"/>
      <point x="381" y="334"/>
      <point x="341" y="334"/>
      <point x="321" y="334" type="curve" smooth="yes"/>
      <point x="284" y="334"/>
      <point x="240" y="344"/>
      <point x="232" y="346" type="curve"/>
      <point x="232" y="289" type="line"/>
      <point x="242" y="288"/>
      <point x="275" y="285"/>
      <point x="298" y="285" type="curve" smooth="yes"/>
      <point x="330" y="285"/>
      <point x="350" y="288"/>
      <point x="367" y="290" type="curve"/>
      <point x="402" y="317" type="line"/>
      <point x="511" y="349"/>
      <point x="563" y="427"/>
      <point x="563" y="516" type="curve" smooth="yes"/>
      <point x="563" y="623"/>
      <point x="475" y="677"/>
      <point x="355" y="676" type="curve" smooth="yes"/>
      <point x="310" y="676"/>
      <point x="260" y="672"/>
      <point x="206" y="672" type="curve"/>
    </contour>
    <contour>
      <point x="331" y="291" type="line"/>
      <point x="416" y="155"/>
      <point x="498" y="43"/>
      <point x="607" y="-50" type="curve"/>
      <point x="617" y="-40" type="line"/>
      <point x="593" y="-5"/>
      <point x="576" y="32"/>
      <point x="542" y="100" type="curve" smooth="yes"/>
      <point x="510" y="163"/>
      <point x="464" y="278"/>
      <point x="447" y="335" type="curve"/>
    </contour>
    <contour>
      <point x="250" y="317" type="line"/>
      <point x="247" y="436"/>
      <point x="249" y="573"/>
      <point x="252" y="672" type="curve"/>
      <point x="192" y="672" type="line"/>
      <point x="151" y="672"/>
      <point x="98" y="676"/>
      <point x="52" y="680" type="curve"/>
      <point x="52" y="666" type="line"/>
      <point x="142" y="663"/>
      <point x="150" y="632"/>
      <point x="150" y="424" type="curve" smooth="yes"/>
      <point x="150" y="317" type="line"/>
    </contour>
    <contour>
      <point x="150" y="324" type="line"/>
      <point x="150" y="248" type="line" smooth="yes"/>
      <point x="150" y="39"/>
      <point x="142" y="12"/>
      <point x="48" y="12" type="curve"/>
      <point x="48" y="-4" type="line"/>
      <point x="101" y="0"/>
      <point x="161" y="4"/>
      <point x="200" y="4" type="curve" smooth="yes"/>
      <point x="235" y="4"/>
      <point x="290" y="0"/>
      <point x="336" y="-4" type="curve"/>
      <point x="336" y="12" type="line"/>
      <point x="263" y="10"/>
      <point x="249" y="44"/>
      <point x="249" y="210" type="curve" smooth="yes"/>
      <point x="249" y="232"/>
      <point x="249" y="284"/>
      <point x="251" y="325" type="curve"/>
    </contour>
  </outline>
</glyph>
<glyph name="A.001" format="1">
  <advance width="675"/>
  <outline>
    <contour>
      <point x="466.0" y="98.0" type="curve" smooth="yes"/>
      <point x="485" y="32"/>
      <point x="477.0" y="12.0"/>
      <point x="412.0" y="12.0" type="curve"/>
      <point x="412.0" y="-4.0" type="line"/>
      <point x="439.0" y="-0.0"/>
      <point x="509.0" y="4.0"/>
      <point x="527.0" y="4.0" type="curve" smooth="yes"/>
      <point x="554.0" y="4.0"/>
      <point x="638.0" y="0.0"/>
      <point x="675.0" y="-4.0" type="curve"/>
      <point x="675.0" y="12.0" type="line"/>
      <point x="623.0" y="12.0"/>
      <point x="607.0" y="33.0"/>
      <point x="542.0" y="180.0" type="curve" smooth="yes"/>
      <point x="426.296654011" y="441.329971113"/>
      <point x="362.992905857" y="641.030741287"/>
      <point x="354" y="680" type="curve"/>
      <point x="342" y="680" type="line"/>
      <point x="325" y="675"/>
      <point x="284" y="672"/>
      <point x="257" y="672" type="curve" smooth="yes"/>
      <point x="225" y="672"/>
      <point x="178" y="676"/>
      <point x="145" y="680" type="curve"/>
      <point x="145" y="666" type="line"/>
      <point x="220" y="662"/>
      <point x="248" y="651"/>
      <point x="286" y="533" type="curve"/>
      <point x="303" y="505" type="line"/>
      <point x="340.835811521" y="424.349980706"/>
      <point x="386.096955447" y="321.719339495"/>
      <point x="424" y="212" type="curve"/>
      <point x="433.0" y="191.0" type="line"/>
      <point x="442.0" y="172.0"/>
      <point x="456" y="132"/>
    </contour>
    <contour>
      <point x="186" y="176" type="line"/>
      <point x="219" y="177"/>
      <point x="269" y="179"/>
      <point x="319" y="179" type="curve" smooth="yes"/>
      <point x="358" y="179"/>
      <point x="417" y="177"/>
      <point x="449" y="176" type="curve"/>
      <point x="449" y="235" type="line"/>
      <point x="416" y="233"/>
      <point x="378" y="231"/>
      <point x="318" y="231" type="curve" smooth="yes"/>
      <point x="277" y="231"/>
      <point x="219" y="233"/>
      <point x="186" y="234" type="curve"/>
    </contour>
    <contour>
      <point x="295" y="645" type="line"/>
      <point x="274.977179204" y="549.891601221"/>
      <point x="207.087830769" y="367.241534614"/>
      <point x="179" y="290" type="curve" smooth="yes"/>
      <point x="85" y="36"/>
      <point x="66" y="12"/>
      <point x="0.0" y="12.0" type="curve"/>
      <point x="0.0" y="-4.0" type="line"/>
      <point x="28.0" y="0.0"/>
      <point x="72" y="4"/>
      <point x="111.0" y="4.0" type="curve" smooth="yes"/>
      <point x="149" y="4"/>
      <point x="210" y="0"/>
      <point x="238" y="-4" type="curve"/>
      <point x="238" y="12" type="line"/>
      <point x="177" y="10"/>
      <point x="170" y="40"/>
      <point x="224" y="205" type="curve"/>
      <point x="231" y="221" type="line"/>
      <point x="257.042639272" y="318.159077284"/>
      <point x="315.860682257" y="468.648388554"/>
      <point x="358" y="575" type="curve"/>
      <point x="343" y="645" type="line"/>
    </contour>
  </outline>
</glyph>
<glyph name="C.001" format="1">
  <advance width="663"/>
  <outline>
    <contour>
      <point x="561" y="475" type="curve"/>
      <point x="576" y="478" type="line"/>
      <point x="572" y="517"/>
      <point x="571" y="548"/>
      <point x="571" y="574" type="curve" smooth="yes"/>
      <point x="571" y="627"/>
      <point x="579" y="664"/>
      <point x="589" y="686" type="curve"/>
      <point x="579" y="691" type="line"/>
      <point x="575" y="679"/>
      <point x="555" y="676"/>
      <point x="535" y="676" type="curve" smooth="yes"/>
      <point x="507" y="676"/>
      <point x="447" y="684"/>
      <point x="388" y="684" type="curve" smooth="yes"/>
      <point x="158" y="684"/>
      <point x="54" y="525"/>
      <point x="54" y="354" type="curve" smooth="yes"/>
      <point x="54" y="157"/>
      <point x="171" y="-10"/>
      <point x="419" y="-10" type="curve" smooth="yes"/>
      <point x="480" y="-10"/>
      <point x="529" y="0"/>
      <point x="547" y="0" type="curve"/>
      <point x="547" y="5" type="line" smooth="yes"/>
      <point x="547" y="26"/>
      <point x="546" y="73"/>
      <point x="581" y="178" type="curve"/>
      <point x="565" y="184" type="line"/>
      <point x="548" y="86"/>
      <point x="510" y="44"/>
      <point x="412" y="44" type="curve" smooth="yes"/>
      <point x="275" y="44"/>
      <point x="171" y="175"/>
      <point x="171" y="370" type="curve" smooth="yes"/>
      <point x="171" y="548"/>
      <point x="269" y="629"/>
      <point x="385" y="629" type="curve" smooth="yes"/>
      <point x="441" y="629"/>
      <point x="495" y="614"/>
      <point x="525" y="589" type="curve" smooth="yes"/>
      <point x="555" y="565"/>
      <point x="563" y="529"/>
    </contour>
  </outline>
</glyph>
<glyph name="C.002.copy_1" format="1">
  <advance width="664"/>
  <outline>
    <contour>
      <point x="310" y="564" type="line"/>
      <point x="480" y="564" type="line"/>
      <point x="480" y="322" type="line"/>
      <point x="310" y="322" type="line"/>
    </contour>
    <component base="c" xOffset="-12"/>
  </outline>
</glyph>
<glyph name="C.002" format="1">
  <advance width="712"/>
  <outline>
    <contour>
      <point x="529" y="-10"/>
      <point x="583" y="0"/>
      <point x="602" y="0" type="curve"/>
      <point x="602" y="5" type="line" smooth="yes"/>
      <point x="602" y="26"/>
      <point x="601" y="73"/>
      <point x="636" y="178" type="curve"/>
      <point x="620" y="184" type="line"/>
      <point x="603" y="86"/>
      <point x="561" y="44"/>
      <point x="456" y="44" type="curve" smooth="yes"/>
      <point x="294" y="44"/>
      <point x="171" y="173"/>
      <point x="171" y="365" type="curve" smooth="yes"/>
      <point x="171" y="546"/>
      <point x="273" y="629"/>
      <point x="420" y="629" type="curve" smooth="yes"/>
      <point x="481" y="629"/>
      <point x="538" y="611"/>
      <point x="572" y="586" type="curve" smooth="yes"/>
      <point x="603" y="562"/>
      <point x="612" y="528"/>
      <point x="610" y="475" type="curve"/>
      <point x="625" y="478" type="line"/>
      <point x="621" y="517"/>
      <point x="620" y="548"/>
      <point x="620" y="574" type="curve" smooth="yes"/>
      <point x="620" y="627"/>
      <point x="628" y="664"/>
      <point x="638" y="686" type="curve"/>
      <point x="628" y="691" type="line"/>
      <point x="624" y="679"/>
      <point x="604" y="676"/>
      <point x="584" y="676" type="curve" smooth="yes"/>
      <point x="555" y="676"/>
      <point x="491" y="684"/>
      <point x="429" y="684" type="curve" smooth="yes"/>
      <point x="171" y="684"/>
      <point x="54" y="523"/>
      <point x="54" y="349" type="curve" smooth="yes"/>
      <point x="54" y="155"/>
      <point x="185" y="-10"/>
      <point x="463" y="-10" type="curve" smooth="yes"/>
    </contour>
    <component base="c" xOffset="-17"/>
  </outline>
</glyph>
<glyph name="D.001" format="1">
  <advance width="746"/>
  <outline>
    <contour>
      <point x="192" y="603" type="curve"/>
      <point x="196" y="603"/>
      <point x="257" y="619"/>
      <point x="313" y="619" type="curve" smooth="yes"/>
      <point x="471" y="619"/>
      <point x="578" y="531"/>
      <point x="578" y="325" type="curve" smooth="yes"/>
      <point x="578" y="151"/>
      <point x="490" y="50"/>
      <point x="351" y="50" type="curve" smooth="yes"/>
      <point x="283" y="50"/>
      <point x="241" y="69"/>
      <point x="230" y="78" type="curve"/>
      <point x="163" y="2" type="line"/>
      <point x="201" y="2"/>
      <point x="292" y="-4"/>
      <point x="331" y="-4" type="curve" smooth="yes"/>
      <point x="558" y="-4"/>
      <point x="692" y="135"/>
      <point x="692" y="370" type="curve" smooth="yes"/>
      <point x="692" y="579"/>
      <point x="531" y="675"/>
      <point x="337" y="675" type="curve" smooth="yes"/>
      <point x="279" y="675"/>
      <point x="253" y="672"/>
      <point x="200" y="672" type="curve"/>
      <point x="200" y="662"/>
      <point x="192" y="616"/>
    </contour>
    <contour>
      <point x="252" y="4" type="line"/>
      <point x="251" y="53"/>
      <point x="250" y="100"/>
      <point x="250" y="338" type="curve" smooth="yes"/>
      <point x="250" y="600"/>
      <point x="252" y="634"/>
      <point x="253" y="672" type="curve"/>
      <point x="200" y="672" type="line"/>
      <point x="168" y="672"/>
      <point x="97" y="675"/>
      <point x="52" y="680" type="curve"/>
      <point x="52" y="666" type="line"/>
      <point x="140" y="662"/>
      <point x="150" y="637"/>
      <point x="150" y="424" type="curve" smooth="yes"/>
      <point x="150" y="248" type="line" smooth="yes"/>
      <point x="150" y="40"/>
      <point x="142" y="12"/>
      <point x="48" y="12" type="curve"/>
      <point x="48" y="-4" type="line"/>
      <point x="95" y="0"/>
      <point x="121" y="2"/>
      <point x="157" y="2" type="curve"/>
    </contour>
  </outline>
</glyph>
<glyph name="D.002" format="1">
  <advance width="791"/>
  <outline>
    <contour>
      <point x="192" y="600" type="curve"/>
      <point x="216" y="607"/>
      <point x="277" y="619"/>
      <point x="326" y="619" type="curve" smooth="yes"/>
      <point x="511" y="619"/>
      <point x="624" y="521"/>
      <point x="624" y="316" type="curve" smooth="yes"/>
      <point x="624" y="175"/>
      <point x="531" y="50"/>
      <point x="372" y="50" type="curve" smooth="yes"/>
      <point x="284" y="50"/>
      <point x="245" y="72"/>
      <point x="232" y="81" type="curve"/>
      <point x="157" y="2" type="line"/>
      <point x="214" y="2"/>
      <point x="291" y="-4"/>
      <point x="370" y="-4" type="curve" smooth="yes"/>
      <point x="587" y="-4"/>
      <point x="737" y="143"/>
      <point x="737" y="355" type="curve" smooth="yes"/>
      <point x="737" y="569"/>
      <point x="583" y="675"/>
      <point x="331" y="675" type="curve" smooth="yes"/>
      <point x="272" y="675"/>
      <point x="252" y="672"/>
      <point x="200" y="672" type="curve"/>
      <point x="200" y="662"/>
      <point x="192" y="614"/>
    </contour>
    <contour>
      <point x="252" y="4" type="line"/>
      <point x="251" y="53"/>
      <point x="250" y="100"/>
      <point x="250" y="338" type="curve" smooth="yes"/>
      <point x="250" y="600"/>
      <point x="252" y="634"/>
      <point x="253" y="672" type="curve"/>
      <point x="200" y="672" type="line"/>
      <point x="168" y="672"/>
      <point x="97" y="675"/>
      <point x="52" y="680" type="curve"/>
      <point x="52" y="666" type="line"/>
      <point x="140" y="662"/>
      <point x="150" y="637"/>
      <point x="150" y="424" type="curve" smooth="yes"/>
      <point x="150" y="248" type="line" smooth="yes"/>
      <point x="150" y="40"/>
      <point x="142" y="12"/>
      <point x="48" y="12" type="curve"/>
      <point x="48" y="-4" type="line"/>
      <point x="95" y="0"/>
      <point x="121" y="2"/>
      <point x="157" y="2" type="curve"/>
    </contour>
  </outline>
</glyph>
<glyph name="G.002" format="1">
  <advance width="752"/>
  <outline>
    <contour>
      <point x="634" y="154" type="curve" smooth="yes"/>
      <point x="634" y="284"/>
      <point x="644" y="299"/>
      <point x="704" y="302" type="curve"/>
      <point x="704" y="317" type="line"/>
      <point x="670" y="312"/>
      <point x="637" y="308"/>
      <point x="597" y="308" type="curve" smooth="yes"/>
      <point x="544" y="308"/>
      <point x="484" y="311"/>
      <point x="443" y="317" type="curve"/>
      <point x="443" y="302" type="line"/>
      <point x="530" y="297"/>
      <point x="543" y="271"/>
      <point x="543" y="128" type="curve" smooth="yes"/>
      <point x="543" y="95"/>
      <point x="542" y="68"/>
      <point x="541" y="40" type="curve" smooth="yes"/>
      <point x="540" y="24"/>
      <point x="508" y="16"/>
      <point x="457" y="23" type="curve"/>
      <point x="457" y="8" type="line"/>
      <point x="495" y="4"/>
      <point x="517" y="12"/>
      <point x="566" y="12" type="curve" smooth="yes"/>
      <point x="592" y="12"/>
      <point x="621" y="8"/>
      <point x="638" y="11" type="curve"/>
      <point x="638" y="29" type="line"/>
      <point x="634" y="52"/>
      <point x="634" y="107"/>
    </contour>
    <contour>
      <point x="638" y="11" type="curve"/>
      <point x="624" y="13"/>
      <point x="614" y="43"/>
      <point x="614" y="51" type="curve" smooth="yes"/>
      <point x="614" y="92"/>
      <point x="620" y="108"/>
      <point x="629" y="126" type="curve"/>
      <point x="613" y="126" type="line"/>
      <point x="586" y="69"/>
      <point x="545" y="44"/>
      <point x="477" y="44" type="curve" smooth="yes"/>
      <point x="281" y="44"/>
      <point x="171" y="192"/>
      <point x="171" y="353" type="curve" smooth="yes"/>
      <point x="171" y="547"/>
      <point x="284" y="629"/>
      <point x="427" y="629" type="curve" smooth="yes"/>
      <point x="493" y="629"/>
      <point x="555" y="612"/>
      <point x="591" y="586" type="curve" smooth="yes"/>
      <point x="622" y="562"/>
      <point x="631" y="528"/>
      <point x="629" y="475" type="curve"/>
      <point x="644" y="478" type="line"/>
      <point x="640" y="517"/>
      <point x="639" y="548"/>
      <point x="639" y="574" type="curve" smooth="yes"/>
      <point x="639" y="627"/>
      <point x="647" y="664"/>
      <point x="657" y="686" type="curve"/>
      <point x="647" y="691" type="line"/>
      <point x="643" y="680"/>
      <point x="627" y="676"/>
      <point x="610" y="676" type="curve" smooth="yes"/>
      <point x="579" y="676"/>
      <point x="515" y="684"/>
      <point x="443" y="684" type="curve" smooth="yes"/>
      <point x="184" y="684"/>
      <point x="54" y="522"/>
      <point x="54" y="344" type="curve" smooth="yes"/>
      <point x="54" y="137"/>
      <point x="207" y="-11"/>
      <point x="458" y="-11" type="curve" smooth="yes"/>
      <point x="512" y="-11"/>
      <point x="595" y="-2"/>
    </contour>
  </outline>
</glyph>
<glyph name="G.004" format="1">
  <advance width="743"/>
  <outline>
    <contour>
      <point x="617" y="135" type="curve" smooth="yes"/>
      <point x="617" y="275"/>
      <point x="626" y="302"/>
      <point x="698" y="302" type="curve"/>
      <point x="698" y="317" type="line"/>
      <point x="643" y="309"/>
      <point x="608" y="309"/>
      <point x="569" y="309" type="curve" smooth="yes"/>
      <point x="518" y="309"/>
      <point x="463" y="313"/>
      <point x="427" y="317" type="curve"/>
      <point x="427" y="302" type="line"/>
      <point x="508" y="297"/>
      <point x="521" y="283"/>
      <point x="521" y="196" type="curve" smooth="yes"/>
      <point x="521" y="151" type="line"/>
      <point x="538" y="151" type="line"/>
      <point x="548" y="17"/>
      <point x="638" y="-4"/>
      <point x="689" y="-4" type="curve"/>
      <point x="689" y="12" type="line"/>
      <point x="650" y="6"/>
      <point x="617" y="44"/>
    </contour>
    <contour>
      <point x="590" y="121" type="curve"/>
      <point x="589" y="196" type="line"/>
      <point x="521" y="196" type="line"/>
      <point x="521" y="97"/>
      <point x="476" y="50"/>
      <point x="396" y="50" type="curve" smooth="yes"/>
      <point x="272" y="50"/>
      <point x="173" y="187"/>
      <point x="173" y="354" type="curve" smooth="yes"/>
      <point x="173" y="547"/>
      <point x="278" y="629"/>
      <point x="416" y="629" type="curve" smooth="yes"/>
      <point x="478" y="629"/>
      <point x="540" y="612"/>
      <point x="577" y="586" type="curve" smooth="yes"/>
      <point x="608" y="562"/>
      <point x="617" y="528"/>
      <point x="615" y="475" type="curve"/>
      <point x="630" y="478" type="line"/>
      <point x="626" y="517"/>
      <point x="625" y="548"/>
      <point x="625" y="574" type="curve" smooth="yes"/>
      <point x="625" y="627"/>
      <point x="633" y="664"/>
      <point x="643" y="686" type="curve"/>
      <point x="633" y="691" type="line"/>
      <point x="629" y="680"/>
      <point x="613" y="676"/>
      <point x="596" y="676" type="curve" smooth="yes"/>
      <point x="566" y="676"/>
      <point x="502" y="684"/>
      <point x="431" y="684" type="curve" smooth="yes"/>
      <point x="180" y="684"/>
      <point x="54" y="522"/>
      <point x="54" y="344" type="curve" smooth="yes"/>
      <point x="54" y="138"/>
      <point x="182" y="-10"/>
      <point x="381" y="-10" type="curve" smooth="yes"/>
      <point x="490" y="-10"/>
      <point x="566" y="42"/>
    </contour>
  </outline>
</glyph>
<glyph name="H.002" format="1">
  <advance width="823"/>
  <outline>
    <contour>
      <point x="352" y="696" type="line"/>
      <point x="348" y="696" type="line"/>
      <point x="348" y="692" type="line"/>
      <point x="352" y="692" type="line"/>
    </contour>
    <contour>
      <point x="573" y="392" type="line"/>
      <point x="530" y="390"/>
      <point x="471" y="389"/>
      <point x="413" y="389" type="curve" smooth="yes"/>
      <point x="372" y="389"/>
      <point x="298" y="390"/>
      <point x="250" y="392" type="curve"/>
      <point x="250" y="328" type="line"/>
      <point x="292" y="329"/>
      <point x="351" y="330"/>
      <point x="398" y="330" type="curve" smooth="yes"/>
      <point x="460" y="330"/>
      <point x="528" y="329"/>
      <point x="573" y="328" type="curve"/>
    </contour>
    <contour>
      <point x="250" y="424" type="line" smooth="yes"/>
      <point x="250" y="638"/>
      <point x="261" y="662"/>
      <point x="348" y="666" type="curve"/>
      <point x="348" y="680" type="line"/>
      <point x="305" y="675"/>
      <point x="232" y="672"/>
      <point x="200" y="672" type="curve" smooth="yes"/>
      <point x="169" y="672"/>
      <point x="95" y="675"/>
      <point x="52" y="680" type="curve"/>
      <point x="52" y="666" type="line"/>
      <point x="139" y="662"/>
      <point x="150" y="638"/>
      <point x="150" y="424" type="curve" smooth="yes"/>
      <point x="150" y="248" type="line" smooth="yes"/>
      <point x="150" y="39"/>
      <point x="142" y="12"/>
      <point x="48" y="12" type="curve"/>
      <point x="48" y="-4" type="line"/>
      <point x="101" y="0"/>
      <point x="161" y="4"/>
      <point x="200" y="4" type="curve" smooth="yes"/>
      <point x="239" y="4"/>
      <point x="301" y="0"/>
      <point x="352" y="-4" type="curve"/>
      <point x="352" y="12" type="line"/>
      <point x="258" y="12"/>
      <point x="250" y="39"/>
      <point x="250" y="248" type="curve" smooth="yes"/>
    </contour>
    <contour>
      <point x="673" y="424" type="line" smooth="yes"/>
      <point x="673" y="638"/>
      <point x="684" y="662"/>
      <point x="771" y="666" type="curve"/>
      <point x="771" y="680" type="line"/>
      <point x="728" y="675"/>
      <point x="655" y="672"/>
      <point x="623" y="672" type="curve" smooth="yes"/>
      <point x="592" y="672"/>
      <point x="518" y="675"/>
      <point x="475" y="680" type="curve"/>
      <point x="475" y="666" type="line"/>
      <point x="562" y="662"/>
      <point x="573" y="638"/>
      <point x="573" y="424" type="curve" smooth="yes"/>
      <point x="573" y="248" type="line" smooth="yes"/>
      <point x="573" y="39"/>
      <point x="565" y="12"/>
      <point x="471" y="12" type="curve"/>
      <point x="471" y="-4" type="line"/>
      <point x="524" y="0"/>
      <point x="584" y="4"/>
      <point x="623" y="4" type="curve" smooth="yes"/>
      <point x="662" y="4"/>
      <point x="724" y="0"/>
      <point x="775" y="-4" type="curve"/>
      <point x="775" y="12" type="line"/>
      <point x="681" y="12"/>
      <point x="673" y="39"/>
      <point x="673" y="248" type="curve" smooth="yes"/>
    </contour>
  </outline>
</glyph>
<glyph name="Q.001" format="1">
  <advance width="737"/>
  <outline>
    <contour>
      <point x="274" y="6" type="line"/>
      <point x="290" y="-15"/>
      <point x="346" y="-79"/>
      <point x="399" y="-131" type="curve" smooth="yes"/>
      <point x="471" y="-202"/>
      <point x="530" y="-240"/>
      <point x="588" y="-240" type="curve" smooth="yes"/>
      <point x="676" y="-240"/>
      <point x="774" y="-202"/>
      <point x="818" y="-160" type="curve"/>
      <point x="808" y="-145" type="line"/>
      <point x="794" y="-165"/>
      <point x="755" y="-186"/>
      <point x="708" y="-186" type="curve" smooth="yes"/>
      <point x="654" y="-186"/>
      <point x="591" y="-172"/>
      <point x="521" y="-130" type="curve" smooth="yes"/>
      <point x="483" y="-108"/>
      <point x="405" y="-56"/>
      <point x="364" y="5" type="curve"/>
    </contour>
    <component base="O.001"/>
  </outline>
</glyph>
<glyph name="Q.002" format="1">
  <advance width="805"/>
  <outline>
    <contour>
      <point x="286" y="6" type="line"/>
      <point x="290" y="2"/>
      <point x="301" y="-9"/>
      <point x="308" y="-16" type="curve" smooth="yes"/>
      <point x="340" y="-45"/>
      <point x="387" y="-94"/>
      <point x="432" y="-131" type="curve" smooth="yes"/>
      <point x="516" y="-202"/>
      <point x="584" y="-240"/>
      <point x="650" y="-240" type="curve" smooth="yes"/>
      <point x="738" y="-240"/>
      <point x="836" y="-202"/>
      <point x="880" y="-160" type="curve"/>
      <point x="870" y="-145" type="line"/>
      <point x="856" y="-165"/>
      <point x="817" y="-186"/>
      <point x="770" y="-186" type="curve" smooth="yes"/>
      <point x="711" y="-186"/>
      <point x="640" y="-167"/>
      <point x="565" y="-130" type="curve" smooth="yes"/>
      <point x="542" y="-120"/>
      <point x="446" y="-68"/>
      <point x="380" y="5" type="curve"/>
    </contour>
    <component base="O.002"/>
  </outline>
</glyph>
<glyph name="R.001" format="1">
  <advance width="767"/>
  <outline>
    <contour>
      <point x="218" y="612" type="line"/>
      <point x="240" y="620"/>
      <point x="271" y="624"/>
      <point x="305" y="624" type="curve" smooth="yes"/>
      <point x="384" y="624"/>
      <point x="459" y="585"/>
      <point x="459" y="481" type="curve" smooth="yes"/>
      <point x="459" y="423"/>
      <point x="430" y="391"/>
      <point x="403" y="372" type="curve" smooth="yes"/>
      <point x="375" y="352"/>
      <point x="337" y="348"/>
      <point x="312" y="348" type="curve" smooth="yes"/>
      <point x="277" y="348"/>
      <point x="237" y="357"/>
      <point x="229" y="359" type="curve"/>
      <point x="229" y="300" type="line"/>
      <point x="241" y="302"/>
      <point x="275" y="304"/>
      <point x="298" y="304" type="curve"/>
      <point x="366" y="306" type="line"/>
      <point x="382" y="320" type="line"/>
      <point x="498" y="341"/>
      <point x="557" y="419"/>
      <point x="557" y="492" type="curve" smooth="yes"/>
      <point x="557" y="623"/>
      <point x="466" y="677"/>
      <point x="341" y="676" type="curve" smooth="yes"/>
      <point x="306" y="676"/>
      <point x="258" y="672"/>
      <point x="206" y="672" type="curve"/>
    </contour>
    <contour>
      <point x="246" y="294" type="line"/>
      <point x="259" y="295"/>
      <point x="270" y="295"/>
      <point x="281" y="295" type="curve" smooth="yes"/>
      <point x="327" y="295"/>
      <point x="359" y="282"/>
      <point x="385" y="250" type="curve" smooth="yes"/>
      <point x="417" y="211"/>
      <point x="443" y="166"/>
      <point x="465" y="127" type="curve" smooth="yes"/>
      <point x="488" y="88"/>
      <point x="508" y="54"/>
      <point x="525" y="34" type="curve" smooth="yes"/>
      <point x="561" y="-8"/>
      <point x="602" y="-16"/>
      <point x="646" y="-16" type="curve" smooth="yes"/>
      <point x="706" y="-16"/>
      <point x="763" y="5"/>
      <point x="803" y="34" type="curve"/>
      <point x="796" y="49" type="line"/>
      <point x="786" y="38"/>
      <point x="766" y="26"/>
      <point x="739" y="26" type="curve" smooth="yes"/>
      <point x="703" y="26"/>
      <point x="656" y="39"/>
      <point x="591" y="125" type="curve" smooth="yes"/>
      <point x="539" y="195"/>
      <point x="506" y="253"/>
      <point x="461" y="291" type="curve" smooth="yes"/>
      <point x="433" y="315"/>
      <point x="398" y="323"/>
      <point x="359" y="329" type="curve"/>
      <point x="246" y="329" type="line"/>
    </contour>
    <contour>
      <point x="250" y="325" type="line"/>
      <point x="247" y="441"/>
      <point x="249" y="575"/>
      <point x="252" y="672" type="curve"/>
      <point x="192" y="672" type="line"/>
      <point x="161" y="672"/>
      <point x="101" y="675"/>
      <point x="58" y="680" type="curve"/>
      <point x="58" y="666" type="line"/>
      <point x="144" y="656"/>
      <point x="150" y="637"/>
      <point x="150" y="424" type="curve" smooth="yes"/>
      <point x="150" y="317" type="line"/>
    </contour>
    <contour>
      <point x="336" y="-4" type="curve"/>
      <point x="336" y="12" type="line"/>
      <point x="260" y="17"/>
      <point x="250" y="37"/>
      <point x="250" y="256" type="curve" smooth="yes"/>
      <point x="250" y="336" type="line"/>
      <point x="150" y="338" type="line"/>
      <point x="150" y="248" type="line" smooth="yes"/>
      <point x="150" y="38"/>
      <point x="142" y="17"/>
      <point x="48" y="10" type="curve"/>
      <point x="48" y="-4" type="line"/>
      <point x="101" y="0"/>
      <point x="161" y="4"/>
      <point x="200" y="4" type="curve" smooth="yes"/>
      <point x="239" y="4"/>
      <point x="301" y="0"/>
    </contour>
  </outline>
</glyph>
<glyph name="U.001" format="1">
  <advance width="716"/>
  <outline>
    <contour>
      <point x="605" y="266" type="curve" smooth="yes"/>
      <point x="605" y="418" type="line" smooth="yes"/>
      <point x="605" y="638"/>
      <point x="620" y="665"/>
      <point x="688" y="666" type="curve"/>
      <point x="688" y="680" type="line"/>
      <point x="662" y="676"/>
      <point x="619" y="672"/>
      <point x="577" y="672" type="curve" smooth="yes"/>
      <point x="533" y="672"/>
      <point x="482" y="676"/>
      <point x="445" y="680" type="curve"/>
      <point x="445" y="666" type="line"/>
      <point x="531" y="662"/>
      <point x="535" y="612"/>
      <point x="535" y="267" type="curve" smooth="yes"/>
      <point x="535" y="107"/>
      <point x="475" y="48"/>
      <point x="382" y="48" type="curve" smooth="yes"/>
      <point x="278" y="48"/>
      <point x="216" y="123"/>
      <point x="216" y="268" type="curve" smooth="yes"/>
      <point x="216" y="324" type="line" smooth="yes"/>
      <point x="216" y="637"/>
      <point x="228" y="665"/>
      <point x="310" y="666" type="curve"/>
      <point x="310" y="680" type="line"/>
      <point x="274" y="676"/>
      <point x="221" y="672"/>
      <point x="189" y="672" type="curve" smooth="yes"/>
      <point x="148" y="672"/>
      <point x="73" y="675"/>
      <point x="28" y="680" type="curve"/>
      <point x="28" y="666" type="line"/>
      <point x="108" y="662"/>
      <point x="116" y="645"/>
      <point x="116" y="475" type="curve" smooth="yes"/>
      <point x="116" y="237" type="line" smooth="yes"/>
      <point x="116" y="65"/>
      <point x="204" y="-14"/>
      <point x="368" y="-14" type="curve" smooth="yes"/>
      <point x="499" y="-14"/>
      <point x="605" y="45"/>
    </contour>
  </outline>
</glyph>
<glyph name="W.002" format="1">
  <advance width="1006"/>
  <outline>
    <contour>
      <point x="284" y="-24" type="line"/>
      <point x="351" y="127" type="line" smooth="yes"/>
      <point x="426" y="296"/>
      <point x="496" y="423"/>
      <point x="562" y="550" type="curve"/>
      <point x="526" y="669" type="line"/>
      <point x="490" y="584" type="line" smooth="yes"/>
      <point x="380" y="324"/>
      <point x="307" y="206"/>
      <point x="262" y="120" type="curve"/>
    </contour>
    <contour>
      <point x="726" y="-24" type="line"/>
      <point x="853" y="413" type="line" smooth="yes"/>
      <point x="918" y="638"/>
      <point x="943" y="664"/>
      <point x="1006" y="666" type="curve"/>
      <point x="1006" y="680" type="line"/>
      <point x="987" y="677"/>
      <point x="946" y="672"/>
      <point x="911" y="672" type="curve" smooth="yes"/>
      <point x="871" y="672"/>
      <point x="796" y="675"/>
      <point x="755" y="680" type="curve"/>
      <point x="755" y="666" type="line"/>
      <point x="835" y="663"/>
      <point x="841" y="641"/>
      <point x="778" y="393" type="curve" smooth="yes"/>
      <point x="767" y="349"/>
      <point x="726" y="217"/>
      <point x="681" y="80" type="curve"/>
    </contour>
    <contour>
      <point x="10" y="666" type="line"/>
      <point x="89" y="666"/>
      <point x="109" y="620"/>
      <point x="183" y="324" type="curve" smooth="yes"/>
      <point x="270" y="-24" type="line"/>
      <point x="284" y="-24" type="line"/>
      <point x="332" y="155" type="line"/>
      <point x="299" y="264"/>
      <point x="275" y="361"/>
      <point x="256" y="440" type="curve" smooth="yes"/>
      <point x="212" y="623"/>
      <point x="218" y="665"/>
      <point x="295" y="666" type="curve"/>
      <point x="295" y="680" type="line"/>
      <point x="255" y="674"/>
      <point x="194" y="672"/>
      <point x="151" y="672" type="curve" smooth="yes"/>
      <point x="126" y="672"/>
      <point x="38" y="676"/>
      <point x="10" y="680" type="curve"/>
    </contour>
    <contour>
      <point x="497" y="495" type="line"/>
      <point x="575" y="324"/>
      <point x="624" y="195"/>
      <point x="712" y="-24" type="curve"/>
      <point x="726" y="-24" type="line"/>
      <point x="761" y="138" type="line"/>
      <point x="702" y="257"/>
      <point x="617" y="462"/>
      <point x="540" y="669" type="curve"/>
      <point x="526" y="669" type="line"/>
    </contour>
  </outline>
</glyph>
